<svg version="1" xmlns="http://www.w3.org/2000/svg" width="346.667" height="346.667" viewBox="0 0 260.000000 260.000000"><path d="M0 130v130h260V0H0v130zm59-72.9c0 1.6.4 2 1.8 1.4 10.1-3.9 28.5-4.4 40.7-1.1 7.4 2.1 16.4 6.6 23.2 11.7l5.2 3.9 7.4-5.3c28.1-20.2 68-15.7 91.3 10.3 8.6 9.6 14.3 20.6 16.9 32.9 1.2 5.8 1.5 15.6 1.5 50.7V205h-46v-42.3c-.1-31.7-.4-43.1-1.4-45.8-5.8-16.4-27.2-21.3-39.3-8.9-6.9 7.1-6.8 5.9-7.1 53.8l-.3 43.2H107v-41.1c0-26.9-.4-42.5-1.1-45.4-1.4-5.6-7.9-13.1-13.4-15.6-8.7-4-19.7-1.7-26.8 5.6-6.6 6.7-6.7 7.9-6.7 54.7V205H13V55h23c22.7 0 23 0 23 2.1z"/></svg>